<svg width="945" height="578" viewBox="0 0 945 578" fill="none" xmlns="http://www.w3.org/2000/svg">
<path fill-rule="evenodd" clip-rule="evenodd" d="M472.92 576.609L804.616 2.369L652.179 0.94043L563.625 155.218L474.438 1.7646L398.697 1.79391L359.909 68.7754L486.972 287.13L396.773 444.001L472.92 576.609Z" fill="url(#paint0_linear_94_16)"/>
<path fill-rule="evenodd" clip-rule="evenodd" d="M384.634 421.152L146.976 0L294.006 0L460.72 288.623L384.634 421.152Z" fill="url(#paint1_linear_94_16)"/>
<path fill-rule="evenodd" clip-rule="evenodd" d="M831.988 1.88525L500.294 576.125L652.728 577.554L741.283 423.276L830.471 576.73L906.212 576.7L945 509.719L817.936 291.364L908.14 134.493L831.988 1.88525Z" fill="url(#paint2_linear_94_16)"/>
<path fill-rule="evenodd" clip-rule="evenodd" d="M113.01 1.88525L444.706 576.125L292.269 577.554L203.716 423.276L114.531 576.73L38.789 576.7L0 509.719L127.063 291.364L36.8619 134.489L113.01 1.88525Z" fill="url(#paint3_linear_94_16)"/>
<defs>
<linearGradient id="paint0_linear_94_16" x1="9865.61" y1="55764.1" x2="31700.7" y2="18021.8" gradientUnits="userSpaceOnUse">
<stop stop-color="#699AD7"/>
<stop offset="0.243" stop-color="#7EB1DD"/>
<stop offset="1" stop-color="#7EBAE4"/>
</linearGradient>
<linearGradient id="paint1_linear_94_16" x1="25727.8" y1="40795.9" x2="9287.26" y2="13770.1" gradientUnits="userSpaceOnUse">
<stop stop-color="#699AD7"/>
<stop offset="0.243" stop-color="#7EB1DD"/>
<stop offset="1" stop-color="#7EBAE4"/>
</linearGradient>
<linearGradient id="paint2_linear_94_16" x1="33966.7" y1="377.34" x2="12441.3" y2="38404.2" gradientUnits="userSpaceOnUse">
<stop stop-color="#415E9A"/>
<stop offset="0.232" stop-color="#4A6BAF"/>
<stop offset="1" stop-color="#5277C3"/>
</linearGradient>
<linearGradient id="paint3_linear_94_16" x1="11004.1" y1="377.341" x2="32529.5" y2="38404.2" gradientUnits="userSpaceOnUse">
<stop stop-color="#415E9A"/>
<stop offset="0.232" stop-color="#4A6BAF"/>
<stop offset="1" stop-color="#5277C3"/>
</linearGradient>
</defs>
</svg>
